<?xml version="1.0" encoding="UTF-8"?>
<svg width="94px" height="32px" viewBox="0 0 94 32" version="1.1" xmlns="http://www.w3.org/2000/svg" xmlns:xlink="http://www.w3.org/1999/xlink">
    <!-- Generator: sketchtool 54.1 (76490) - https://sketchapp.com -->
    <title>8F8B98EC-AB52-4D63-8C03-0AD25AEA112E</title>
    <desc>Created with sketchtool.</desc>
    <g id="ENTREGA" stroke="none" stroke-width="1" fill="none" fill-rule="evenodd">
        <g id="HOME-DESKTOP" transform="translate(-353.000000, -6542.000000)">
            <g id="TV" transform="translate(312.000000, 6539.000000)">
                <g id="Group-20">
                    <g id="logo-tvn" transform="translate(40.000000, 0.000000)">
                        <polygon id="Path" fill="#C32417" points="60 3 95 3 95 35 88.0921053 35 88.0921053 9.76056338 81.1842105 9.76056338 81.1842105 34.7746479 74.2763158 34.7746479 74.2763158 9.76056338 67.3684211 9.76056338 67.3684211 34.7746479 60.4605263 34.7746479 60.4605263 3"></polygon>
                        <path d="M15.576,8.48 L15.576,34 L9.416,34 L9.416,8.48 L1.1,8.48 L1.1,3.2 L23.892,3.2 L23.892,8.48 L15.576,8.48 Z M54.891158,3.2 L43.891158,34 L37.115158,34 L26.115158,3.2 L32.363158,3.2 L40.503158,26.476 L40.591158,26.476 L48.643158,3.2 L54.891158,3.2 Z" id="TV" fill="#000000" fill-rule="nonzero"></path>
                    </g>
                </g>
            </g>
        </g>
    </g>
</svg>