<?xml version="1.0" encoding="utf-8"?>
<!-- Generator: Adobe Illustrator 19.2.1, SVG Export Plug-In . SVG Version: 6.00 Build 0)  -->
<svg version="1.1" id="Camada_1" xmlns="http://www.w3.org/2000/svg" xmlns:xlink="http://www.w3.org/1999/xlink" x="0px" y="0px"
	 viewBox="0 0 85.9 16" style="enable-background:new 0 0 85.9 16;" xml:space="preserve">
<style type="text/css">
	.st0{fill:#CF1A10;}
	.st1{fill:#3B1013;}
</style>
<g>
	<g>
		<path class="st0" d="M2.5,0.4h15.2v15.2h-3V3.4h-3v12.1h-3V3.4h-3v12.1h-3V0.4z"/>
		<g>
			<path class="st1" d="M21,15.5c-0.2,0-0.3-0.1-0.3-0.3V8.3C20.7,8.1,20.8,8,21,8h3.8c0.2,0,0.3,0.1,0.3,0.3v0.9
				c0,0.2-0.1,0.3-0.3,0.3h-2.3v1.4h2.1c0.2,0,0.3,0.1,0.3,0.3V12c0,0.2-0.1,0.3-0.3,0.3h-2.1V14h2.4c0.2,0,0.3,0.1,0.3,0.3v0.9
				c0,0.2-0.1,0.3-0.3,0.3H21z"/>
			<path class="st1" d="M32.1,8c0.2,0,0.3,0.1,0.3,0.3v0.9c0,0.2-0.1,0.3-0.3,0.3h-1.4v5.7c0,0.2-0.1,0.3-0.3,0.3h-1.2
				c-0.2,0-0.3-0.1-0.3-0.3V9.5h-1.4c-0.2,0-0.3-0.1-0.3-0.3V8.3c0-0.2,0.1-0.3,0.3-0.3H32.1z"/>
			<path class="st1" d="M39,12.5l1.1,2.7c0.1,0.2-0.1,0.3-0.3,0.3h-1.2c-0.2,0-0.3-0.2-0.3-0.3l-1-2.5h-0.8v2.5
				c0,0.2-0.1,0.3-0.3,0.3H35c-0.2,0-0.3-0.1-0.3-0.3V8.3C34.6,8.1,34.7,8,35,8h2.4c2.1,0,2.8,0.9,2.8,1.9v1
				C40.2,11.5,39.9,12.1,39,12.5z M36.5,9.5v1.8h0.9c0.5,0,1-0.2,1-0.7v-0.3c0-0.5-0.5-0.7-1-0.7H36.5z"/>
			<path class="st1" d="M42.6,9.8c0-1,0.7-1.9,2.8-1.9s2.8,0.9,2.8,1.9v3.9c0,1-0.8,1.9-2.8,1.9s-2.8-0.9-2.8-1.9V9.8z M46.5,10.1
				c0-0.5-0.5-0.7-1-0.7c-0.5,0-1,0.2-1,0.7v3.3c0,0.5,0.5,0.7,1,0.7c0.5,0,1-0.2,1-0.7V10.1z M46.2,7.2c-0.1,0.1-0.2,0.2-0.4,0.2
				h-0.9c-0.2,0-0.3-0.1-0.2-0.3l0.4-1c0.1-0.2,0.2-0.3,0.5-0.3h1.2c0.2,0,0.3,0.1,0.2,0.3L46.2,7.2z"/>
			<path class="st1" d="M52.7,13v2.2c0,0.2-0.1,0.3-0.3,0.3h-1.2c-0.2,0-0.3-0.1-0.3-0.3V8.3c0-0.2,0.1-0.3,0.3-0.3h2.4
				c2.1,0,2.8,0.9,2.8,1.9v1.2c0,1-0.7,1.9-2.8,1.9H52.7z M52.7,9.5v2h0.9c0.5,0,1-0.2,1-0.7v-0.5c0-0.5-0.5-0.7-1-0.7H52.7z"/>
			<path class="st1" d="M58.2,9.8c0-1,0.7-1.9,2.8-1.9s2.8,0.9,2.8,1.9v3.9c0,1-0.8,1.9-2.8,1.9s-2.8-0.9-2.8-1.9V9.8z M62,10.1
				c0-0.5-0.5-0.7-1-0.7c-0.5,0-1,0.2-1,0.7v3.3c0,0.5,0.5,0.7,1,0.7c0.5,0,1-0.2,1-0.7V10.1z"/>
			<path class="st1" d="M67.8,14H70c0.2,0,0.3,0.1,0.3,0.3v0.9c0,0.2-0.1,0.3-0.3,0.3h-3.7c-0.2,0-0.3-0.1-0.3-0.3V8.3
				C66,8.1,66.1,8,66.3,8h1.2c0.2,0,0.3,0.1,0.3,0.3V14z"/>
			<path class="st1" d="M72.7,15.5c-0.2,0-0.3-0.1-0.3-0.3V8.3c0-0.2,0.1-0.3,0.3-0.3h3.8c0.2,0,0.3,0.1,0.3,0.3v0.9
				c0,0.2-0.1,0.3-0.3,0.3h-2.3v1.4h2.1c0.2,0,0.3,0.1,0.3,0.3V12c0,0.2-0.1,0.3-0.3,0.3h-2.1V14h2.4c0.2,0,0.3,0.1,0.3,0.3v0.9
				c0,0.2-0.1,0.3-0.3,0.3H72.7z"/>
			<path class="st1" d="M82.6,10c0-0.5-0.4-0.7-0.9-0.7s-0.9,0.2-0.9,0.7v0.1c0,0.3,0.2,0.4,0.4,0.5l1.9,0.6
				c0.8,0.3,1.4,0.9,1.4,1.7v0.8c0,1-0.7,1.9-2.8,1.9s-2.8-0.9-2.8-1.9V13c0-0.2,0.1-0.3,0.3-0.3h1.2c0.2,0,0.3,0.1,0.3,0.3v0.5
				c0,0.5,0.4,0.7,1,0.7c0.5,0,1-0.2,1-0.7v-0.2c0-0.4-0.5-0.6-1-0.7l-1.6-0.6c-0.6-0.2-1-0.8-1-1.5V9.8c0-1,0.6-1.9,2.6-1.9
				c2.1,0,2.7,0.9,2.7,1.9v0.4c0,0.2-0.1,0.3-0.3,0.3h-1.2c-0.2,0-0.3-0.1-0.3-0.3V10z"/>
		</g>
	</g>
</g>
</svg>
