<svg xmlns="http://www.w3.org/2000/svg" width="198" height="34" viewBox="0 0 198 34">
    <g fill="none" fill-rule="evenodd">
        <path fill="#C32417" d="M0 0v34h7.224V6.8h7.224V34h7.225V6.8h7.225V34h7.224V0z"/>
        <g fill="#FFF">
            <path d="M45.101 33.791c-.561 0-.776-.235-.776-.783V16.824c0-.549.215-.783.776-.783h9.154c.562 0 .803.183.803.73v2.036c0 .549-.24.757-.803.757h-5.514v3.394h5.086c.562 0 .803.183.803.731v1.906c0 .548-.241.756-.803.756H48.74v3.916h5.781c.563 0 .803.183.803.731v2.036c0 .548-.24.757-.803.757h-9.42zM71.869 16.04c.562 0 .803.183.803.731v2.037c0 .548-.24.757-.803.757h-3.426v13.443c0 .548-.187.783-.749.783h-2.89c-.562 0-.777-.235-.777-.783V19.565h-3.426c-.562 0-.802-.21-.802-.757V16.77c0-.548.24-.73.802-.73H71.87zM82.27 19.565v4.15h2.14c1.313 0 2.437-.496 2.437-1.697v-.757c0-1.2-1.124-1.696-2.437-1.696h-2.14zm6.156 7.021l2.623 6.422c.187.47-.162.783-.75.783h-2.89c-.509 0-.616-.418-.777-.783l-2.354-5.769H82.27v5.769c0 .548-.188.783-.749.783H78.63c-.563 0-.776-.235-.776-.783V16.824c0-.549.213-.784.776-.784h5.78c5.033 0 6.8 2.22 6.8 4.464v2.271c0 1.488-.777 2.976-2.784 3.811zM105.637 14.292c-.16.235-.482.522-1.044.522h-2.114c-.481 0-.669-.21-.428-.757l1.07-2.402c.215-.47.536-.783 1.097-.783h2.865c.561 0 .722.34.4.783l-1.846 2.637zm.75 6.76c0-1.2-1.125-1.696-2.436-1.696-1.312 0-2.41.495-2.41 1.697v7.726c0 1.201 1.098 1.696 2.41 1.696 1.31 0 2.436-.495 2.436-1.696v-7.726zm-9.261-.756c0-2.245 1.793-4.464 6.825-4.464s6.852 2.22 6.852 4.464v9.24c0 2.245-1.82 4.464-6.852 4.464s-6.825-2.219-6.825-4.464v-9.24zM121.24 19.565v4.672h2.141c1.311 0 2.436-.496 2.436-1.697v-1.279c0-1.2-1.125-1.696-2.436-1.696h-2.14zm0 8.196v5.247c0 .548-.187.783-.749.783H117.6c-.561 0-.776-.235-.776-.783V16.824c0-.549.215-.784.776-.784h5.781c5.033 0 6.799 2.22 6.799 4.464v2.793c0 2.245-1.766 4.464-6.799 4.464h-2.14zM143.737 21.053c0-1.201-1.124-1.697-2.435-1.697-1.312 0-2.41.496-2.41 1.697v7.727c0 1.2 1.098 1.696 2.41 1.696 1.311 0 2.435-.496 2.435-1.696v-7.727zm-9.26-.758c0-2.244 1.793-4.463 6.825-4.463s6.852 2.219 6.852 4.463v9.242c0 2.244-1.82 4.463-6.852 4.463s-6.826-2.219-6.826-4.463v-9.242zM157.75 30.267h5.247c.56 0 .802.183.802.731v2.036c0 .548-.241.757-.802.757h-8.992c-.484 0-.67-.261-.67-.783V16.824c0-.549.214-.784.776-.784h2.891c.56 0 .748.235.748.784v13.443zM169.575 33.791c-.563 0-.776-.235-.776-.783V16.824c0-.549.213-.783.776-.783h9.152c.562 0 .804.183.804.73v2.036c0 .549-.242.757-.804.757h-5.513v3.394h5.085c.562 0 .803.183.803.731v1.906c0 .548-.24.756-.803.756h-5.085v3.916h5.781c.563 0 .804.183.804.731v2.036c0 .548-.241.757-.804.757h-9.42zM193.222 20.87c0-1.201-.856-1.645-2.088-1.645-1.23 0-2.114.444-2.114 1.645v.26c0 .706.562 1.018.856 1.123l4.497 1.488c1.98.653 3.345 2.01 3.345 3.942v1.854c0 2.244-1.633 4.463-6.664 4.463-5.032 0-6.718-2.219-6.718-4.463v-1.75c0-.548.214-.782.776-.782h2.784c.561 0 .749.234.749.782v1.175c0 1.2 1.043 1.645 2.355 1.645 1.31 0 2.382-.444 2.382-1.645v-.522c0-.94-1.284-1.384-2.3-1.75l-3.855-1.409c-1.365-.496-2.49-1.958-2.49-3.471v-1.515c0-2.244 1.392-4.463 6.344-4.463s6.45 2.219 6.45 4.463v.966c0 .549-.214.784-.776.784h-2.784c-.563 0-.749-.235-.749-.784v-.391z"/>
        </g>
    </g>
</svg>